<mxfile host="app.diagrams.net" modified="2021-07-14T10:08:15.813Z" agent="5.0 (Macintosh; Intel Mac OS X 10_15_6) AppleWebKit/605.1.15 (KHTML, like Gecko) Version/14.1.1 Safari/605.1.15" etag="_Cqs5nFyg16C-NR_gvZw" version="14.8.6" type="github">
  <diagram id="FFPN_viR1QeTXnwRhpP1" name="Page-1">
    <mxGraphModel dx="1273" dy="660" grid="1" gridSize="10" guides="1" tooltips="1" connect="1" arrows="1" fold="1" page="1" pageScale="1" pageWidth="827" pageHeight="1169" math="0" shadow="0">
      <root>
        <mxCell id="0" />
        <mxCell id="1" parent="0" />
        <mxCell id="fOPeem-4GS8IQXv0jA_y-4" value="" style="edgeStyle=orthogonalEdgeStyle;rounded=0;orthogonalLoop=1;jettySize=auto;html=1;" parent="1" source="fOPeem-4GS8IQXv0jA_y-2" target="fOPeem-4GS8IQXv0jA_y-3" edge="1">
          <mxGeometry relative="1" as="geometry" />
        </mxCell>
        <mxCell id="fOPeem-4GS8IQXv0jA_y-2" value="간편인증" style="rounded=1;whiteSpace=wrap;html=1;" parent="1" vertex="1">
          <mxGeometry x="120" y="160" width="120" height="40" as="geometry" />
        </mxCell>
        <mxCell id="fOPeem-4GS8IQXv0jA_y-6" value="" style="edgeStyle=orthogonalEdgeStyle;rounded=0;orthogonalLoop=1;jettySize=auto;html=1;" parent="1" source="fOPeem-4GS8IQXv0jA_y-3" target="fOPeem-4GS8IQXv0jA_y-5" edge="1">
          <mxGeometry relative="1" as="geometry" />
        </mxCell>
        <mxCell id="fOPeem-4GS8IQXv0jA_y-3" value="수임동의" style="rounded=1;whiteSpace=wrap;html=1;" parent="1" vertex="1">
          <mxGeometry x="120" y="240" width="120" height="40" as="geometry" />
        </mxCell>
        <mxCell id="fOPeem-4GS8IQXv0jA_y-8" value="" style="edgeStyle=orthogonalEdgeStyle;rounded=0;orthogonalLoop=1;jettySize=auto;html=1;" parent="1" source="fOPeem-4GS8IQXv0jA_y-5" target="fOPeem-4GS8IQXv0jA_y-7" edge="1">
          <mxGeometry relative="1" as="geometry" />
        </mxCell>
        <mxCell id="fOPeem-4GS8IQXv0jA_y-5" value="스크래핑" style="rounded=1;whiteSpace=wrap;html=1;" parent="1" vertex="1">
          <mxGeometry x="120" y="320" width="120" height="40" as="geometry" />
        </mxCell>
        <mxCell id="ceO7FLTLpm3Mc5pa_Sh7-29" value="&lt;b&gt;Y&lt;/b&gt;" style="edgeStyle=orthogonalEdgeStyle;rounded=0;orthogonalLoop=1;jettySize=auto;html=1;entryX=0;entryY=0.5;entryDx=0;entryDy=0;" edge="1" parent="1" source="fOPeem-4GS8IQXv0jA_y-7" target="ceO7FLTLpm3Mc5pa_Sh7-18">
          <mxGeometry relative="1" as="geometry" />
        </mxCell>
        <mxCell id="fOPeem-4GS8IQXv0jA_y-7" value="1 근로소득&amp;nbsp;총급여액(세전)&amp;nbsp;7천만원 이하인가?&lt;br&gt;2&amp;nbsp;&lt;span style=&quot;font-family: &amp;#34;helvetica&amp;#34;&quot;&gt;종합소득금액&amp;nbsp;6천만원&lt;/span&gt;&lt;span style=&quot;font-family: &amp;#34;helvetica&amp;#34;&quot;&gt;&amp;nbsp;&lt;/span&gt;&lt;span style=&quot;font-family: &amp;#34;helvetica&amp;#34;&quot;&gt;이하인가?&lt;/span&gt;" style="rhombus;whiteSpace=wrap;html=1;rounded=1;" parent="1" vertex="1">
          <mxGeometry x="280" y="277.5" width="310" height="125" as="geometry" />
        </mxCell>
        <mxCell id="fOPeem-4GS8IQXv0jA_y-26" style="edgeStyle=orthogonalEdgeStyle;rounded=0;orthogonalLoop=1;jettySize=auto;html=1;entryX=0.5;entryY=0;entryDx=0;entryDy=0;exitX=0.5;exitY=1;exitDx=0;exitDy=0;" parent="1" edge="1">
          <mxGeometry relative="1" as="geometry">
            <Array as="points">
              <mxPoint x="435" y="440" />
              <mxPoint x="435" y="440" />
            </Array>
            <mxPoint x="435" y="402.5" as="sourcePoint" />
            <mxPoint x="435" y="480" as="targetPoint" />
          </mxGeometry>
        </mxCell>
        <mxCell id="fOPeem-4GS8IQXv0jA_y-27" value="&lt;b&gt;N&lt;/b&gt;" style="edgeLabel;html=1;align=center;verticalAlign=middle;resizable=0;points=[];" parent="fOPeem-4GS8IQXv0jA_y-26" vertex="1" connectable="0">
          <mxGeometry x="-0.6" y="-1" relative="1" as="geometry">
            <mxPoint as="offset" />
          </mxGeometry>
        </mxCell>
        <mxCell id="fOPeem-4GS8IQXv0jA_y-16" value="&lt;span&gt;대상아님 화면&lt;/span&gt;" style="shape=process;whiteSpace=wrap;html=1;backgroundOutline=1;" parent="1" vertex="1">
          <mxGeometry x="375" y="480" width="120" height="40" as="geometry" />
        </mxCell>
        <mxCell id="fOPeem-4GS8IQXv0jA_y-29" style="edgeStyle=orthogonalEdgeStyle;rounded=0;orthogonalLoop=1;jettySize=auto;html=1;" parent="1" source="fOPeem-4GS8IQXv0jA_y-20" target="fOPeem-4GS8IQXv0jA_y-28" edge="1">
          <mxGeometry relative="1" as="geometry" />
        </mxCell>
        <mxCell id="fOPeem-4GS8IQXv0jA_y-20" value="삼쩜삼하러 가기" style="text;html=1;strokeColor=none;fillColor=none;align=center;verticalAlign=middle;whiteSpace=wrap;rounded=0;" parent="1" vertex="1">
          <mxGeometry x="380" y="530" width="110" height="20" as="geometry" />
        </mxCell>
        <mxCell id="fOPeem-4GS8IQXv0jA_y-22" value="" style="edgeStyle=orthogonalEdgeStyle;rounded=0;orthogonalLoop=1;jettySize=auto;html=1;" parent="1" source="fOPeem-4GS8IQXv0jA_y-21" target="fOPeem-4GS8IQXv0jA_y-2" edge="1">
          <mxGeometry relative="1" as="geometry" />
        </mxCell>
        <mxCell id="fOPeem-4GS8IQXv0jA_y-21" value="&lt;sub&gt;&lt;font style=&quot;font-size: 24px&quot;&gt;삼쩜삼 &lt;/font&gt;&lt;/sub&gt;&lt;sup&gt;월세alpha&lt;/sup&gt;" style="text;html=1;strokeColor=none;fillColor=none;align=center;verticalAlign=middle;whiteSpace=wrap;rounded=0;fontStyle=1" parent="1" vertex="1">
          <mxGeometry x="120" y="80" width="120" height="40" as="geometry" />
        </mxCell>
        <mxCell id="fOPeem-4GS8IQXv0jA_y-28" value="&lt;sub&gt;&lt;font style=&quot;font-size: 24px&quot;&gt;삼쩜삼&lt;/font&gt;&lt;/sub&gt;" style="text;html=1;strokeColor=none;fillColor=none;align=center;verticalAlign=middle;whiteSpace=wrap;rounded=0;fontStyle=1" parent="1" vertex="1">
          <mxGeometry x="375" y="600" width="120" height="25" as="geometry" />
        </mxCell>
        <mxCell id="ceO7FLTLpm3Mc5pa_Sh7-31" value="" style="edgeStyle=orthogonalEdgeStyle;rounded=0;orthogonalLoop=1;jettySize=auto;html=1;" edge="1" parent="1" source="fOPeem-4GS8IQXv0jA_y-37" target="ceO7FLTLpm3Mc5pa_Sh7-4">
          <mxGeometry relative="1" as="geometry" />
        </mxCell>
        <mxCell id="fOPeem-4GS8IQXv0jA_y-37" value="파일 업로드 화면" style="shape=process;whiteSpace=wrap;html=1;backgroundOutline=1;" parent="1" vertex="1">
          <mxGeometry x="790" y="480" width="120" height="40" as="geometry" />
        </mxCell>
        <mxCell id="ceO7FLTLpm3Mc5pa_Sh7-7" value="" style="edgeStyle=orthogonalEdgeStyle;rounded=0;orthogonalLoop=1;jettySize=auto;html=1;" edge="1" parent="1" source="ceO7FLTLpm3Mc5pa_Sh7-4" target="ceO7FLTLpm3Mc5pa_Sh7-6">
          <mxGeometry relative="1" as="geometry" />
        </mxCell>
        <mxCell id="ceO7FLTLpm3Mc5pa_Sh7-4" value="환급신청 완료 화면" style="shape=process;whiteSpace=wrap;html=1;backgroundOutline=1;" vertex="1" parent="1">
          <mxGeometry x="960" y="480" width="120" height="40" as="geometry" />
        </mxCell>
        <mxCell id="ceO7FLTLpm3Mc5pa_Sh7-6" value="환급 완료 화면" style="shape=process;whiteSpace=wrap;html=1;backgroundOutline=1;" vertex="1" parent="1">
          <mxGeometry x="1120" y="480" width="120" height="40" as="geometry" />
        </mxCell>
        <mxCell id="ceO7FLTLpm3Mc5pa_Sh7-17" value="&lt;font face=&quot;helvetica&quot;&gt;&lt;b&gt;어드민/TA (기존이랑 최대한 복붙+추가)&lt;br&gt;&lt;/b&gt;&lt;br&gt;- 기존 신고내역&amp;nbsp;&lt;br&gt;- 스크래핑 내역 중 어떤 정보 표기해줄지?&lt;br&gt;&lt;b&gt;&lt;span style=&quot;white-space: pre&quot;&gt; : 상수님 인터뷰~~~ &lt;/span&gt;&lt;br&gt;&lt;/b&gt;- 사용자 업로드 파일 3개&amp;nbsp;&lt;br&gt;&lt;span style=&quot;white-space: pre&quot;&gt; : 파일 다운로드 버튼 추가&lt;/span&gt;&lt;br&gt;&lt;/font&gt;" style="text;whiteSpace=wrap;html=1;" vertex="1" parent="1">
          <mxGeometry x="1013" y="290" width="217" height="120" as="geometry" />
        </mxCell>
        <mxCell id="ceO7FLTLpm3Mc5pa_Sh7-30" value="&lt;b&gt;Y&lt;/b&gt;" style="edgeStyle=orthogonalEdgeStyle;rounded=0;orthogonalLoop=1;jettySize=auto;html=1;" edge="1" parent="1" source="ceO7FLTLpm3Mc5pa_Sh7-18" target="ceO7FLTLpm3Mc5pa_Sh7-23">
          <mxGeometry relative="1" as="geometry" />
        </mxCell>
        <mxCell id="ceO7FLTLpm3Mc5pa_Sh7-18" value="근로소득 지급명세서상&lt;br&gt;결정세액이 &lt;br&gt;0원 이상인가?" style="rhombus;whiteSpace=wrap;html=1;rounded=1;" vertex="1" parent="1">
          <mxGeometry x="630" y="277.5" width="120" height="125" as="geometry" />
        </mxCell>
        <mxCell id="ceO7FLTLpm3Mc5pa_Sh7-21" value="&lt;font face=&quot;helvetica&quot;&gt;&lt;b&gt;완료 알림톡&lt;/b&gt;&lt;br&gt;&lt;/font&gt;" style="text;whiteSpace=wrap;html=1;" vertex="1" parent="1">
          <mxGeometry x="1130" y="455" width="67" height="25" as="geometry" />
        </mxCell>
        <mxCell id="ceO7FLTLpm3Mc5pa_Sh7-26" style="edgeStyle=orthogonalEdgeStyle;rounded=0;orthogonalLoop=1;jettySize=auto;html=1;entryX=0;entryY=0.5;entryDx=0;entryDy=0;" edge="1" parent="1" source="ceO7FLTLpm3Mc5pa_Sh7-23" target="fOPeem-4GS8IQXv0jA_y-37">
          <mxGeometry relative="1" as="geometry" />
        </mxCell>
        <mxCell id="ceO7FLTLpm3Mc5pa_Sh7-23" value="결제 화면" style="shape=process;whiteSpace=wrap;html=1;backgroundOutline=1;" vertex="1" parent="1">
          <mxGeometry x="630" y="480" width="120" height="40" as="geometry" />
        </mxCell>
        <mxCell id="ceO7FLTLpm3Mc5pa_Sh7-24" value="&lt;b&gt;수수료&lt;/b&gt;&lt;br&gt;N만원&amp;nbsp;-&amp;gt; 0원&lt;br&gt;&lt;b&gt;예상환급액&lt;/b&gt;&lt;br&gt;소득공제아니고 세액공제라서 &lt;br&gt;(상대적으로) 정확함" style="text;html=1;strokeColor=none;fillColor=none;align=center;verticalAlign=middle;whiteSpace=wrap;rounded=0;" vertex="1" parent="1">
          <mxGeometry x="610" y="525" width="167" height="85" as="geometry" />
        </mxCell>
        <mxCell id="ceO7FLTLpm3Mc5pa_Sh7-25" value="&lt;font face=&quot;helvetica&quot;&gt;&lt;b&gt;변수&lt;br&gt;&lt;/b&gt;연말정산 결과를 종소세 신고때 근로소득결정세액이 수정한사람 (극소수로 예상됨)&lt;br&gt;Ex. 중도퇴사로 공제적용 안되었던걸 적용한 경우 등등&lt;br&gt;&lt;/font&gt;" style="text;whiteSpace=wrap;html=1;" vertex="1" parent="1">
          <mxGeometry x="840" y="217.5" width="390" height="60" as="geometry" />
        </mxCell>
      </root>
    </mxGraphModel>
  </diagram>
</mxfile>
